<svg width="47" height="47" viewBox="0 0 47 47" fill="none" xmlns="http://www.w3.org/2000/svg">
  <path
    d="M16.1564 34.0456L13.2189 31.1067L11.1465 33.1776L16.1564 38.1875L24.9689 29.375L22.898 27.3041L16.1564 34.0456ZM41.1251 44.0625H35.2501V41.125H41.1251V23.5H35.2501V11.75C35.2482 10.1924 34.6286 8.69925 33.5272 7.59789C32.4259 6.49654 30.9327 5.87694 29.3751 5.875V2.9375C31.7115 2.94022 33.9514 3.86955 35.6035 5.52163C37.2556 7.1737 38.1849 9.41361 38.1876 11.75V20.5625H41.1251C41.904 20.5633 42.6507 20.873 43.2014 21.4237C43.7521 21.9745 44.0619 22.7212 44.0626 23.5V41.125C44.0619 41.9038 43.7521 42.6505 43.2014 43.2013C42.6507 43.752 41.904 44.0617 41.1251 44.0625Z"
    fill="#FF9A62" />
  <path
    d="M29.375 20.5625H26.4375V11.75C26.4375 9.41278 25.509 7.17129 23.8564 5.51862C22.2037 3.86596 19.9622 2.9375 17.625 2.9375C15.2878 2.9375 13.0463 3.86596 11.3936 5.51862C9.74096 7.17129 8.8125 9.41278 8.8125 11.75V20.5625H5.875C5.09593 20.5625 4.34876 20.872 3.79787 21.4229C3.24699 21.9738 2.9375 22.7209 2.9375 23.5V41.125C2.9375 41.9041 3.24699 42.6512 3.79787 43.2021C4.34876 43.753 5.09593 44.0625 5.875 44.0625H29.375C30.1541 44.0625 30.9012 43.753 31.4521 43.2021C32.003 42.6512 32.3125 41.9041 32.3125 41.125V23.5C32.3125 22.7209 32.003 21.9738 31.4521 21.4229C30.9012 20.872 30.1541 20.5625 29.375 20.5625ZM11.75 11.75C11.75 10.1919 12.369 8.69752 13.4707 7.59575C14.5725 6.49397 16.0669 5.875 17.625 5.875C19.1831 5.875 20.6775 6.49397 21.7793 7.59575C22.881 8.69752 23.5 10.1919 23.5 11.75V20.5625H11.75V11.75ZM29.375 41.125H5.875V23.5H29.375V41.125Z"
    fill="#FF9A62" />
</svg>