<svg width="30" height="30" viewBox="0 0 30 30" fill="none" xmlns="http://www.w3.org/2000/svg">
  <circle cx="15" cy="15" r="15" fill="#6268FF" />
  <path
    d="M15 17.7885C16.54 17.7885 17.7885 16.54 17.7885 15C17.7885 13.46 16.54 12.2115 15 12.2115C13.46 12.2115 12.2115 13.46 12.2115 15C12.2115 16.54 13.46 17.7885 15 17.7885Z"
    fill="white" />
  <path
    d="M22.4359 7.56417H19.4894L18.3369 6.30937C18.1636 6.11919 17.9527 5.96723 17.7174 5.8632C17.4821 5.75917 17.2278 5.70536 16.9705 5.7052H13.0295C12.509 5.7052 12.0071 5.92828 11.6538 6.30937L10.5106 7.56417H7.5641C6.54167 7.56417 5.70513 8.40071 5.70513 9.42315V20.577C5.70513 21.5994 6.54167 22.436 7.5641 22.436H22.4359C23.4583 22.436 24.2949 21.5994 24.2949 20.577V9.42315C24.2949 8.40071 23.4583 7.56417 22.4359 7.56417ZM15 19.6475C12.4346 19.6475 10.3526 17.5655 10.3526 15.0001C10.3526 12.4347 12.4346 10.3526 15 10.3526C17.5654 10.3526 19.6474 12.4347 19.6474 15.0001C19.6474 17.5655 17.5654 19.6475 15 19.6475Z"
    fill="white" />
</svg>