<svg width="47" height="47" viewBox="0 0 47 47" fill="none" xmlns="http://www.w3.org/2000/svg">
  <path
    d="M23.5 29.375C26.7447 29.375 29.375 26.7447 29.375 23.5C29.375 20.2553 26.7447 17.625 23.5 17.625C20.2553 17.625 17.625 20.2553 17.625 23.5C17.625 26.7447 20.2553 29.375 23.5 29.375Z"
    fill="#6268FF" />
  <path
    d="M39.1667 7.83332H32.9587L30.5304 5.18957C30.1655 4.78889 29.721 4.46872 29.2253 4.24955C28.7296 4.03037 28.1936 3.91699 27.6517 3.91666H19.3483C18.2517 3.91666 17.1942 4.38666 16.45 5.18957L14.0413 7.83332H7.83333C5.67917 7.83332 3.91667 9.59582 3.91667 11.75V35.25C3.91667 37.4042 5.67917 39.1667 7.83333 39.1667H39.1667C41.3208 39.1667 43.0833 37.4042 43.0833 35.25V11.75C43.0833 9.59582 41.3208 7.83332 39.1667 7.83332ZM23.5 33.2917C18.095 33.2917 13.7083 28.905 13.7083 23.5C13.7083 18.095 18.095 13.7083 23.5 13.7083C28.905 13.7083 33.2917 18.095 33.2917 23.5C33.2917 28.905 28.905 33.2917 23.5 33.2917Z"
    fill="#6268FF" />
</svg>