<svg width="18" height="18" viewBox="0 0 18 18" fill="none" xmlns="http://www.w3.org/2000/svg">
<path d="M9 16.875C6.91142 16.875 4.90838 16.0453 3.43153 14.5685C1.95469 13.0916 1.125 11.0886 1.125 9C1.125 6.91142 1.95469 4.90838 3.43153 3.43153C4.90838 1.95469 6.91142 1.125 9 1.125C11.0886 1.125 13.0916 1.95469 14.5685 3.43153C16.0453 4.90838 16.875 6.91142 16.875 9C16.875 11.0886 16.0453 13.0916 14.5685 14.5685C13.0916 16.0453 11.0886 16.875 9 16.875ZM9 18C11.3869 18 13.6761 17.0518 15.364 15.364C17.0518 13.6761 18 11.3869 18 9C18 6.61305 17.0518 4.32387 15.364 2.63604C13.6761 0.948212 11.3869 0 9 0C6.61305 0 4.32387 0.948212 2.63604 2.63604C0.948212 4.32387 0 6.61305 0 9C0 11.3869 0.948212 13.6761 2.63604 15.364C4.32387 17.0518 6.61305 18 9 18V18Z" fill="#FF9A62"/>
<path d="M12.7294 11.2658C12.8362 11.2407 12.948 11.2473 13.0511 11.2849C13.1542 11.3225 13.244 11.3894 13.3095 11.4774C13.375 11.5654 13.4134 11.6707 13.4199 11.7802C13.4263 11.8897 13.4006 11.9987 13.3459 12.0938C12.9017 12.8637 12.2625 13.503 11.4927 13.9474C10.7228 14.3917 9.84955 14.6255 8.96068 14.6251C8.07181 14.6255 7.19852 14.3917 6.42869 13.9474C5.65886 13.503 5.01966 12.8637 4.57543 12.0938C4.52072 11.9987 4.49503 11.8897 4.5015 11.7802C4.50797 11.6707 4.54632 11.5654 4.61184 11.4774C4.67736 11.3894 4.76719 11.3225 4.87025 11.2849C4.97332 11.2473 5.08514 11.2407 5.19193 11.2658H5.19755L5.21668 11.2715L5.29205 11.2883L5.57555 11.3502C5.81743 11.402 6.15493 11.4717 6.53968 11.5403C7.3193 11.6798 8.25193 11.8126 8.96068 11.8126C9.66943 11.8126 10.6032 11.6798 11.3817 11.5403C11.7993 11.4652 12.2153 11.3812 12.6293 11.2883L12.7047 11.2715L12.7238 11.267L12.7294 11.2647V11.2658ZM5.35055 5.13684C6.20893 3.53484 9.87305 5.00184 6.42155 9.00009C1.36355 7.20459 3.7778 4.16484 5.35055 5.13684ZM12.6496 5.13684C14.2223 4.16484 16.6366 7.20459 11.5786 9.00009C8.12818 5.00184 11.7923 3.53484 12.6496 5.13684Z" fill="#FF9A62"/>
</svg>
