<svg width="18" height="18" viewBox="0 0 18 18" fill="none" xmlns="http://www.w3.org/2000/svg">
<path d="M9 16.875C6.91142 16.875 4.90838 16.0453 3.43153 14.5685C1.95469 13.0916 1.125 11.0886 1.125 9C1.125 6.91142 1.95469 4.90838 3.43153 3.43153C4.90838 1.95469 6.91142 1.125 9 1.125C11.0886 1.125 13.0916 1.95469 14.5685 3.43153C16.0453 4.90838 16.875 6.91142 16.875 9C16.875 11.0886 16.0453 13.0916 14.5685 14.5685C13.0916 16.0453 11.0886 16.875 9 16.875ZM9 18C11.3869 18 13.6761 17.0518 15.364 15.364C17.0518 13.6761 18 11.3869 18 9C18 6.61305 17.0518 4.32387 15.364 2.63604C13.6761 0.948212 11.3869 0 9 0C6.61305 0 4.32387 0.948212 2.63604 2.63604C0.948212 4.32387 0 6.61305 0 9C0 11.3869 0.948212 13.6761 2.63604 15.364C4.32387 17.0518 6.61305 18 9 18V18Z" fill="#FF9A62"/>
<path d="M4.82066 13.9871C4.94986 14.0617 5.10339 14.0819 5.24749 14.0433C5.39158 14.0047 5.51444 13.9104 5.58904 13.7812C5.93454 13.1824 6.43172 12.6851 7.03053 12.3395C7.62934 11.9938 8.30864 11.8121 9.00004 11.8125C10.4569 11.8125 11.7293 12.6034 12.411 13.7812C12.4862 13.9094 12.6089 14.0026 12.7525 14.0406C12.8961 14.0786 13.0489 14.0582 13.1776 13.9839C13.3062 13.9096 13.4002 13.7875 13.4391 13.6441C13.4781 13.5008 13.4587 13.3479 13.3853 13.2188C12.9411 12.4489 12.3019 11.8096 11.532 11.3652C10.7622 10.9208 9.88891 10.6871 9.00004 10.6875C8.11121 10.6873 7.23801 10.9212 6.46822 11.3655C5.69844 11.8098 5.0592 12.449 4.61479 13.2188C4.5402 13.3479 4.51999 13.5015 4.55859 13.6456C4.5972 13.7897 4.69147 13.9125 4.82066 13.9871ZM7.87504 7.3125C7.87504 8.244 7.37104 9 6.75004 9C6.12904 9 5.62504 8.244 5.62504 7.3125C5.62504 6.381 6.12904 5.625 6.75004 5.625C7.37104 5.625 7.87504 6.381 7.87504 7.3125ZM12.375 7.3125C12.375 8.244 11.871 9 11.25 9C10.629 9 10.125 8.244 10.125 7.3125C10.125 6.381 10.629 5.625 11.25 5.625C11.871 5.625 12.375 6.381 12.375 7.3125Z" fill="#FF9A62"/>
</svg>
