<svg width="56" height="56" viewBox="0 0 56 56" fill="none" xmlns="http://www.w3.org/2000/svg">
  <path
    d="M16.261 14.261C16.4235 14.098 16.6166 13.9687 16.8292 13.8805C17.0418 13.7922 17.2698 13.7468 17.5 13.7468C17.7301 13.7468 17.9581 13.7922 18.1707 13.8805C18.3833 13.9687 18.5764 14.098 18.739 14.261L28 23.5255L37.261 14.261C37.4237 14.0982 37.6168 13.9692 37.8294 13.8811C38.042 13.7931 38.2699 13.7477 38.5 13.7477C38.7301 13.7477 38.9579 13.7931 39.1705 13.8811C39.3831 13.9692 39.5762 14.0982 39.739 14.261C39.9017 14.4237 40.0307 14.6168 40.1188 14.8294C40.2068 15.042 40.2522 15.2699 40.2522 15.5C40.2522 15.7301 40.2068 15.9579 40.1188 16.1705C40.0307 16.3831 39.9017 16.5762 39.739 16.739L30.4745 26L39.739 35.261C39.9017 35.4237 40.0307 35.6168 40.1188 35.8294C40.2068 36.042 40.2522 36.2699 40.2522 36.5C40.2522 36.7301 40.2068 36.9579 40.1188 37.1705C40.0307 37.3831 39.9017 37.5762 39.739 37.739C39.5762 37.9017 39.3831 38.0307 39.1705 38.1188C38.9579 38.2068 38.7301 38.2522 38.5 38.2522C38.2699 38.2522 38.042 38.2068 37.8294 38.1188C37.6168 38.0307 37.4237 37.9017 37.261 37.739L28 28.4745L18.739 37.739C18.5762 37.9017 18.3831 38.0307 18.1705 38.1188C17.9579 38.2068 17.7301 38.2522 17.5 38.2522C17.2699 38.2522 17.042 38.2068 16.8294 38.1188C16.6168 38.0307 16.4237 37.9017 16.261 37.739C16.0982 37.5762 15.9692 37.3831 15.8811 37.1705C15.7931 36.9579 15.7477 36.7301 15.7477 36.5C15.7477 36.2699 15.7931 36.042 15.8811 35.8294C15.9692 35.6168 16.0982 35.4237 16.261 35.261L25.5255 26L16.261 16.739C16.098 16.5764 15.9687 16.3833 15.8805 16.1707C15.7922 15.9581 15.7468 15.7301 15.7468 15.5C15.7468 15.2698 15.7922 15.0418 15.8805 14.8292C15.9687 14.6166 16.098 14.4235 16.261 14.261Z"
    fill="#555555" />
</svg>