<svg width="84" height="73" viewBox="0 0 84 73" fill="none" xmlns="http://www.w3.org/2000/svg">
<path d="M40.9138 21.1386L14.6667 42.7891V66.1562C14.6667 66.7613 14.9066 67.3415 15.3338 67.7693C15.761 68.1972 16.3403 68.4375 16.9444 68.4375L32.8974 68.3961C33.4996 68.3931 34.076 68.1515 34.5007 67.724C34.9254 67.2965 35.1638 66.718 35.1638 66.1149V52.4687C35.1638 51.8637 35.4038 51.2835 35.831 50.8557C36.2581 50.4278 36.8375 50.1875 37.4416 50.1875H46.5527C47.1568 50.1875 47.7362 50.4278 48.1633 50.8557C48.5905 51.2835 48.8305 51.8637 48.8305 52.4687V66.1049C48.8295 66.4051 48.8878 66.7025 49.0018 66.9801C49.1159 67.2577 49.2835 67.51 49.4951 67.7226C49.7067 67.9352 49.9581 68.1039 50.2349 68.219C50.5118 68.3341 50.8085 68.3933 51.1083 68.3933L67.0555 68.4375C67.6597 68.4375 68.239 68.1972 68.6662 67.7693C69.0933 67.3415 69.3333 66.7613 69.3333 66.1562V42.7734L43.0919 21.1386C42.7834 20.8896 42.3991 20.7538 42.0028 20.7538C41.6066 20.7538 41.2223 20.8896 40.9138 21.1386V21.1386ZM82.3736 35.8541L70.4722 26.0291V6.28056C70.4722 5.82679 70.2922 5.39161 69.9719 5.07075C69.6515 4.74989 69.217 4.56963 68.7639 4.56963H60.7917C60.3386 4.56963 59.9041 4.74989 59.5837 5.07075C59.2633 5.39161 59.0833 5.82679 59.0833 6.28056V16.6332L46.3377 6.13086C45.1146 5.1228 43.5798 4.57164 41.9957 4.57164C40.4117 4.57164 38.8769 5.1228 37.6537 6.13086L1.61784 35.8541C1.44486 35.9973 1.30174 36.1732 1.19667 36.3719C1.09159 36.5705 1.02662 36.7879 1.00547 37.0116C0.984316 37.2354 1.00739 37.4612 1.07339 37.676C1.13938 37.8908 1.24699 38.0905 1.39007 38.2637L5.02028 42.6836C5.16297 42.8574 5.33848 43.0013 5.53676 43.107C5.73504 43.2128 5.9522 43.2783 6.17581 43.2999C6.39942 43.3215 6.62508 43.2987 6.83988 43.2328C7.05468 43.1669 7.2544 43.0593 7.4276 42.916L40.9138 15.2929C41.2223 15.0439 41.6066 14.9081 42.0028 14.9081C42.3991 14.9081 42.7834 15.0439 43.0919 15.2929L76.5795 42.916C76.7524 43.0593 76.9518 43.1671 77.1663 43.2332C77.3808 43.2993 77.6062 43.3224 77.8297 43.3012C78.0531 43.28 78.2702 43.2149 78.4685 43.1097C78.6668 43.0045 78.8424 42.8611 78.9854 42.6879L82.6156 38.268C82.7585 38.0938 82.8657 37.8931 82.9309 37.6773C82.9961 37.4615 83.0181 37.235 82.9956 37.0107C82.9731 36.7863 82.9066 36.5687 82.7999 36.3702C82.6931 36.1717 82.5483 35.9963 82.3736 35.8541V35.8541Z" fill="#FF9A62"/>
</svg>
