<svg width="276" height="271" viewBox="0 0 276 271" fill="none" xmlns="http://www.w3.org/2000/svg">
<path d="M253 175.021C253 206.202 227.256 231.479 195.5 231.479C185.202 231.479 175.537 228.821 167.176 224.166C152.457 215.97 141.783 201.582 138.826 184.609C138.283 181.493 138 178.289 138 175.021C138 160.524 143.565 147.303 152.711 137.306C163.238 125.799 178.508 118.562 195.5 118.562C227.256 118.562 253 143.84 253 175.021Z" fill="#FF9A62" stroke="black" stroke-width="4" stroke-linecap="round" stroke-linejoin="round"/>
<path d="M195.5 67.75V112.917V118.563C178.508 118.563 163.238 125.799 152.711 137.306C143.565 147.303 138 160.524 138 175.021C138 178.289 138.283 181.493 138.826 184.609C141.783 201.582 152.457 215.97 167.176 224.166C151.867 228.71 131.546 231.479 109.25 231.479C61.6153 231.479 23 218.84 23 203.25V158.083V112.917V67.75" stroke="black" stroke-width="4" stroke-linecap="round" stroke-linejoin="round"/>
<path d="M195.5 67.75C195.5 83.3404 156.885 95.9792 109.25 95.9792C61.6153 95.9792 23 83.3404 23 67.75C23 52.1595 61.6153 39.5209 109.25 39.5209C156.885 39.5209 195.5 52.1595 195.5 67.75Z" fill="#FF9A62" stroke="black" stroke-width="4" stroke-linecap="round" stroke-linejoin="round"/>
<path d="M23 158.083C23 173.674 61.6153 186.313 109.25 186.313C119.64 186.313 129.601 185.711 138.826 184.609" stroke="black" stroke-width="4" stroke-linecap="round" stroke-linejoin="round"/>
<path d="M23 112.917C23 128.507 61.6153 141.146 109.25 141.146C125.099 141.146 139.949 139.747 152.711 137.306" stroke="black" stroke-width="4" stroke-linecap="round" stroke-linejoin="round"/>
<path d="M212.75 191.958L195.5 175.021M195.5 175.021L212.75 158.083M195.5 175.021L178.25 158.083M195.5 175.021L178.25 191.958" stroke="white" stroke-width="4" stroke-linecap="round" stroke-linejoin="round"/>
</svg>
