<svg width="90" height="90" viewBox="0 0 90 90" fill="none" xmlns="http://www.w3.org/2000/svg">
<path d="M79.8135 31.0342L57.498 27.791L47.5225 7.56735C47.25 7.01364 46.8018 6.5654 46.248 6.29294C44.8594 5.60739 43.1719 6.17868 42.4775 7.56735L32.5019 27.791L10.1865 31.0342C9.57129 31.122 9.00879 31.4121 8.57812 31.8515C8.05747 32.3867 7.77057 33.1066 7.78046 33.8532C7.79035 34.5997 8.09622 35.3118 8.63086 35.833L24.7764 51.5742L20.9619 73.8017C20.8725 74.3188 20.9297 74.8506 21.1271 75.3368C21.3245 75.823 21.6541 76.2441 22.0787 76.5525C22.5033 76.8609 23.0058 77.0441 23.5292 77.0814C24.0526 77.1187 24.576 77.0087 25.04 76.7636L45 66.2695L64.96 76.7636C65.5049 77.0537 66.1377 77.1504 66.7441 77.0449C68.2734 76.7812 69.3018 75.331 69.0381 73.8017L65.2236 51.5742L81.3691 35.833C81.8086 35.4023 82.0986 34.8398 82.1865 34.2246C82.4238 32.6865 81.3516 31.2627 79.8135 31.0342Z" fill="#FF9A62"/>
</svg>
