<svg width="146" height="146" viewBox="0 0 146 146" fill="none" xmlns="http://www.w3.org/2000/svg">
  <path
    d="M73 45.625C78.0396 45.625 82.125 41.5396 82.125 36.5C82.125 31.4604 78.0396 27.375 73 27.375C67.9604 27.375 63.875 31.4604 63.875 36.5C63.875 41.5396 67.9604 45.625 73 45.625Z"
    fill="#FF9A62" />
  <path
    d="M73 82.125C78.0396 82.125 82.125 78.0396 82.125 73C82.125 67.9604 78.0396 63.875 73 63.875C67.9604 63.875 63.875 67.9604 63.875 73C63.875 78.0396 67.9604 82.125 73 82.125Z"
    fill="#FF9A62" />
  <path
    d="M73 118.625C78.0396 118.625 82.125 114.54 82.125 109.5C82.125 104.46 78.0396 100.375 73 100.375C67.9604 100.375 63.875 104.46 63.875 109.5C63.875 114.54 67.9604 118.625 73 118.625Z"
    fill="#FF9A62" />
</svg>