<svg width="90" height="63" viewBox="0 0 90 63" fill="none" xmlns="http://www.w3.org/2000/svg">
<path d="M88.0121 9.82625C87.4959 7.92699 86.4889 6.1955 85.0915 4.8042C83.694 3.41289 81.9548 2.41031 80.0471 1.8963C73.063 0 44.9542 0 44.9542 0C44.9542 0 16.8439 0.0573998 9.85979 1.9537C7.95204 2.46774 6.21283 3.47038 4.81537 4.86175C3.41792 6.25312 2.41096 7.98468 1.89479 9.884C-0.217748 22.2383 -1.03724 41.0634 1.9528 52.9235C2.46902 54.8228 3.476 56.5542 4.87346 57.9455C6.27091 59.3369 8.01009 60.3394 9.9178 60.8535C16.9019 62.7498 45.0115 62.7498 45.0115 62.7498C45.0115 62.7498 73.1207 62.7498 80.1044 60.8535C82.0122 60.3395 83.7515 59.3369 85.149 57.9456C86.5465 56.5543 87.5535 54.8228 88.0698 52.9235C90.298 40.5517 90.9846 21.7385 88.0121 9.8266V9.82625Z" fill="#FF0000"/>
<path d="M36.0074 44.821L59.3258 31.3747L36.0074 17.9284V44.821Z" fill="white"/>
</svg>
