<svg width="79" height="79" viewBox="0 0 79 79" fill="none" xmlns="http://www.w3.org/2000/svg">
  <g clip-path="url(#clip0_405_406)">
    <path
      d="M39.5 4.38892C32.5557 4.38892 25.7673 6.44815 19.9934 10.3062C14.2194 14.1643 9.71908 19.6479 7.06161 26.0636C4.40413 32.4793 3.70881 39.539 5.06358 46.3499C6.41835 53.1608 9.76236 59.417 14.6727 64.3273C19.5831 69.2377 25.8393 72.5817 32.6502 73.9365C39.4611 75.2913 46.5208 74.596 52.9365 71.9385C59.3522 69.281 64.8358 64.7807 68.6939 59.0067C72.5519 53.2327 74.6112 46.4444 74.6112 39.5C74.6112 30.188 70.912 21.2573 64.3274 14.6727C57.7427 8.08811 48.8121 4.38892 39.5 4.38892V4.38892ZM62.432 27.7159L33.597 56.5289L16.5681 39.5C15.9861 38.918 15.6591 38.1287 15.6591 37.3056C15.6591 36.4825 15.9861 35.6931 16.5681 35.1111C17.1501 34.5291 17.9395 34.2022 18.7625 34.2022C19.5856 34.2022 20.375 34.5291 20.957 35.1111L33.6409 47.795L58.087 23.3709C58.3752 23.0827 58.7173 22.8541 59.0938 22.6981C59.4703 22.5422 59.8739 22.4619 60.2814 22.4619C60.689 22.4619 61.0925 22.5422 61.4691 22.6981C61.8456 22.8541 62.1877 23.0827 62.4759 23.3709C62.7641 23.659 62.9927 24.0012 63.1486 24.3777C63.3046 24.7542 63.3849 25.1578 63.3849 25.5653C63.3849 25.9729 63.3046 26.3764 63.1486 26.7529C62.9927 27.1295 62.7641 27.4716 62.4759 27.7598L62.432 27.7159Z"
      fill="var(--primaryPurple)" />
  </g>
  <defs>
    <clipPath id="clip0_405_406">
      <rect width="79" height="79" fill="white" />
    </clipPath>
  </defs>
</svg>